<svg xmlns="http://www.w3.org/2000/svg" viewBox="0 0 1250.0 550.0">
<defs>
        <filter id="glow" x="-50%" y="-50%" width="200%" height="200%">
            <feGaussianBlur stdDeviation="4" result="coloredBlur"/>
            <feMerge>
                <feMergeNode in="coloredBlur"/>
                <feMergeNode in="SourceGraphic"/>
            </feMerge>
        </filter>
    </defs>
<g filter="url(#glow)">
<rect x="266.5" y="246.5" width="7" height="7" fill="#30ceff" rx="1"/>
<rect x="346.5" y="126.5" width="7" height="7" fill="#42bcff" rx="1"/>
<rect x="616.5" y="206.5" width="7" height="7" fill="#7e80ff" rx="1"/>
<rect x="546.5" y="156.5" width="7" height="7" fill="#6e90ff" rx="1"/>
<rect x="1026.5" y="226.5" width="7" height="7" fill="#d925ff" rx="1"/>
<rect x="926.5" y="386.5" width="7" height="7" fill="#c33bff" rx="1"/>
<rect x="286.5" y="196.5" width="7" height="7" fill="#35c9ff" rx="1"/>
<rect x="376.5" y="126.5" width="7" height="7" fill="#49b5ff" rx="1"/>
<rect x="1046.5" y="176.5" width="7" height="7" fill="#dd21ff" rx="1"/>
<rect x="46.5" y="476.5" width="7" height="7" fill="#00ffff" rx="1"/>
<rect x="686.5" y="306.5" width="7" height="7" fill="#8d71ff" rx="1"/>
<rect x="576.5" y="156.5" width="7" height="7" fill="#7589ff" rx="1"/>
<rect x="236.5" y="316.5" width="7" height="7" fill="#2ad4ff" rx="1"/>
<rect x="216.5" y="276.5" width="7" height="7" fill="#25d9ff" rx="1"/>
<rect x="696.5" y="346.5" width="7" height="7" fill="#906eff" rx="1"/>
<rect x="456.5" y="96.5" width="7" height="7" fill="#5aa4ff" rx="1"/>
<rect x="646.5" y="336.5" width="7" height="7" fill="#8579ff" rx="1"/>
<rect x="226.5" y="326.5" width="7" height="7" fill="#27d7ff" rx="1"/>
<rect x="276.5" y="156.5" width="7" height="7" fill="#33ccff" rx="1"/>
<rect x="176.5" y="316.5" width="7" height="7" fill="#1ce2ff" rx="1"/>
<rect x="656.5" y="386.5" width="7" height="7" fill="#8777ff" rx="1"/>
<rect x="636.5" y="346.5" width="7" height="7" fill="#827cff" rx="1"/>
<rect x="476.5" y="46.5" width="7" height="7" fill="#5f9fff" rx="1"/>
<rect x="986.5" y="306.5" width="7" height="7" fill="#d02eff" rx="1"/>
<rect x="536.5" y="106.5" width="7" height="7" fill="#6c92ff" rx="1"/>
<rect x="966.5" y="346.5" width="7" height="7" fill="#cc33ff" rx="1"/>
<rect x="216.5" y="226.5" width="7" height="7" fill="#25d9ff" rx="1"/>
<rect x="246.5" y="276.5" width="7" height="7" fill="#2cd2ff" rx="1"/>
<rect x="146.5" y="436.5" width="7" height="7" fill="#16e8ff" rx="1"/>
<rect x="196.5" y="266.5" width="7" height="7" fill="#21ddff" rx="1"/>
<rect x="176.5" y="446.5" width="7" height="7" fill="#1ce2ff" rx="1"/>
<rect x="1076.5" y="226.5" width="7" height="7" fill="#e41aff" rx="1"/>
<rect x="106.5" y="476.5" width="7" height="7" fill="#0df1ff" rx="1"/>
<rect x="526.5" y="186.5" width="7" height="7" fill="#6a94ff" rx="1"/>
<rect x="636.5" y="296.5" width="7" height="7" fill="#827cff" rx="1"/>
<rect x="1006.5" y="256.5" width="7" height="7" fill="#d42aff" rx="1"/>
<rect x="1036.5" y="266.5" width="7" height="7" fill="#db23ff" rx="1"/>
<rect x="316.5" y="196.5" width="7" height="7" fill="#3bc3ff" rx="1"/>
<rect x="746.5" y="436.5" width="7" height="7" fill="#9b63ff" rx="1"/>
<rect x="1016.5" y="306.5" width="7" height="7" fill="#d727ff" rx="1"/>
<rect x="916.5" y="466.5" width="7" height="7" fill="#c03eff" rx="1"/>
<rect x="966.5" y="296.5" width="7" height="7" fill="#cc33ff" rx="1"/>
<rect x="326.5" y="106.5" width="7" height="7" fill="#3ec0ff" rx="1"/>
<rect x="676.5" y="386.5" width="7" height="7" fill="#8b73ff" rx="1"/>
<rect x="46.5" y="466.5" width="7" height="7" fill="#00ffff" rx="1"/>
<rect x="656.5" y="246.5" width="7" height="7" fill="#8777ff" rx="1"/>
<rect x="1056.5" y="216.5" width="7" height="7" fill="#df1fff" rx="1"/>
<rect x="956.5" y="376.5" width="7" height="7" fill="#c935ff" rx="1"/>
<rect x="586.5" y="196.5" width="7" height="7" fill="#7787ff" rx="1"/>
<rect x="426.5" y="76.5" width="7" height="7" fill="#54aaff" rx="1"/>
<rect x="1146.5" y="136.5" width="7" height="7" fill="#f30bff" rx="1"/>
<rect x="1096.5" y="126.5" width="7" height="7" fill="#e816ff" rx="1"/>
<rect x="996.5" y="206.5" width="7" height="7" fill="#d22cff" rx="1"/>
<rect x="386.5" y="106.5" width="7" height="7" fill="#4bb3ff" rx="1"/>
<rect x="266.5" y="226.5" width="7" height="7" fill="#30ceff" rx="1"/>
<rect x="296.5" y="96.5" width="7" height="7" fill="#37c7ff" rx="1"/>
<rect x="596.5" y="226.5" width="7" height="7" fill="#7985ff" rx="1"/>
<rect x="546.5" y="136.5" width="7" height="7" fill="#6e90ff" rx="1"/>
<rect x="496.5" y="126.5" width="7" height="7" fill="#639bff" rx="1"/>
<rect x="926.5" y="366.5" width="7" height="7" fill="#c33bff" rx="1"/>
<rect x="286.5" y="176.5" width="7" height="7" fill="#35c9ff" rx="1"/>
<rect x="1036.5" y="256.5" width="7" height="7" fill="#db23ff" rx="1"/>
<rect x="936.5" y="416.5" width="7" height="7" fill="#c539ff" rx="1"/>
<rect x="216.5" y="346.5" width="7" height="7" fill="#25d9ff" rx="1"/>
<rect x="696.5" y="416.5" width="7" height="7" fill="#906eff" rx="1"/>
<rect x="866.5" y="446.5" width="7" height="7" fill="#b549ff" rx="1"/>
<rect x="226.5" y="396.5" width="7" height="7" fill="#27d7ff" rx="1"/>
<rect x="356.5" y="106.5" width="7" height="7" fill="#44baff" rx="1"/>
<rect x="256.5" y="266.5" width="7" height="7" fill="#2ed0ff" rx="1"/>
<rect x="1046.5" y="156.5" width="7" height="7" fill="#dd21ff" rx="1"/>
<rect x="1056.5" y="206.5" width="7" height="7" fill="#df1fff" rx="1"/>
<rect x="1006.5" y="196.5" width="7" height="7" fill="#d42aff" rx="1"/>
<rect x="236.5" y="296.5" width="7" height="7" fill="#2ad4ff" rx="1"/>
<rect x="1166.5" y="96.5" width="7" height="7" fill="#f806ff" rx="1"/>
<rect x="986.5" y="376.5" width="7" height="7" fill="#d02eff" rx="1"/>
<rect x="966.5" y="416.5" width="7" height="7" fill="#cc33ff" rx="1"/>
<rect x="376.5" y="56.5" width="7" height="7" fill="#49b5ff" rx="1"/>
<rect x="276.5" y="136.5" width="7" height="7" fill="#33ccff" rx="1"/>
<rect x="596.5" y="306.5" width="7" height="7" fill="#7985ff" rx="1"/>
<rect x="816.5" y="486.5" width="7" height="7" fill="#aa54ff" rx="1"/>
<rect x="56.5" y="496.5" width="7" height="7" fill="#02fcff" rx="1"/>
<rect x="386.5" y="96.5" width="7" height="7" fill="#4bb3ff" rx="1"/>
<rect x="716.5" y="416.5" width="7" height="7" fill="#946aff" rx="1"/>
<rect x="726.5" y="466.5" width="7" height="7" fill="#9668ff" rx="1"/>
<rect x="1146.5" y="76.5" width="7" height="7" fill="#f30bff" rx="1"/>
<rect x="946.5" y="316.5" width="7" height="7" fill="#c737ff" rx="1"/>
<rect x="606.5" y="266.5" width="7" height="7" fill="#7c82ff" rx="1"/>
<rect x="1026.5" y="196.5" width="7" height="7" fill="#d925ff" rx="1"/>
<rect x="56.5" y="446.5" width="7" height="7" fill="#02fcff" rx="1"/>
<rect x="636.5" y="276.5" width="7" height="7" fill="#827cff" rx="1"/>
<rect x="266.5" y="166.5" width="7" height="7" fill="#30ceff" rx="1"/>
<rect x="916.5" y="446.5" width="7" height="7" fill="#c03eff" rx="1"/>
<rect x="966.5" y="276.5" width="7" height="7" fill="#cc33ff" rx="1"/>
<rect x="196.5" y="376.5" width="7" height="7" fill="#21ddff" rx="1"/>
<rect x="756.5" y="466.5" width="7" height="7" fill="#9d61ff" rx="1"/>
<rect x="326.5" y="86.5" width="7" height="7" fill="#3ec0ff" rx="1"/>
<rect x="866.5" y="436.5" width="7" height="7" fill="#b549ff" rx="1"/>
<rect x="1026.5" y="326.5" width="7" height="7" fill="#d925ff" rx="1"/>
<rect x="1076.5" y="156.5" width="7" height="7" fill="#e41aff" rx="1"/>
<rect x="336.5" y="126.5" width="7" height="7" fill="#40beff" rx="1"/>
<rect x="1166.5" y="86.5" width="7" height="7" fill="#f806ff" rx="1"/>
<rect x="506.5" y="156.5" width="7" height="7" fill="#6699ff" rx="1"/>
<rect x="406.5" y="56.5" width="7" height="7" fill="#4fafff" rx="1"/>
<rect x="596.5" y="296.5" width="7" height="7" fill="#7985ff" rx="1"/>
<rect x="676.5" y="316.5" width="7" height="7" fill="#8b73ff" rx="1"/>
<rect x="816.5" y="476.5" width="7" height="7" fill="#aa54ff" rx="1"/>
<rect x="1096.5" y="106.5" width="7" height="7" fill="#e816ff" rx="1"/>
<rect x="76.5" y="446.5" width="7" height="7" fill="#06f8ff" rx="1"/>
<rect x="386.5" y="86.5" width="7" height="7" fill="#4bb3ff" rx="1"/>
<rect x="1006.5" y="316.5" width="7" height="7" fill="#d42aff" rx="1"/>
<rect x="1196.5" y="86.5" width="7" height="7" fill="#ff00ff" rx="1"/>
<rect x="626.5" y="216.5" width="7" height="7" fill="#807eff" rx="1"/>
<rect x="686.5" y="356.5" width="7" height="7" fill="#8d71ff" rx="1"/>
<rect x="56.5" y="436.5" width="7" height="7" fill="#02fcff" rx="1"/>
<rect x="496.5" y="106.5" width="7" height="7" fill="#639bff" rx="1"/>
<rect x="776.5" y="496.5" width="7" height="7" fill="#a15dff" rx="1"/>
<rect x="986.5" y="226.5" width="7" height="7" fill="#d02eff" rx="1"/>
<rect x="866.5" y="426.5" width="7" height="7" fill="#b549ff" rx="1"/>
<rect x="226.5" y="376.5" width="7" height="7" fill="#27d7ff" rx="1"/>
<rect x="706.5" y="446.5" width="7" height="7" fill="#926cff" rx="1"/>
<rect x="176.5" y="366.5" width="7" height="7" fill="#1ce2ff" rx="1"/>
<rect x="256.5" y="246.5" width="7" height="7" fill="#2ed0ff" rx="1"/>
<rect x="606.5" y="206.5" width="7" height="7" fill="#7c82ff" rx="1"/>
<rect x="876.5" y="466.5" width="7" height="7" fill="#b846ff" rx="1"/>
<rect x="236.5" y="276.5" width="7" height="7" fill="#2ad4ff" rx="1"/>
<rect x="966.5" y="396.5" width="7" height="7" fill="#cc33ff" rx="1"/>
<rect x="296.5" y="156.5" width="7" height="7" fill="#37c7ff" rx="1"/>
<rect x="456.5" y="56.5" width="7" height="7" fill="#5aa4ff" rx="1"/>
<rect x="196.5" y="316.5" width="7" height="7" fill="#21ddff" rx="1"/>
<rect x="406.5" y="46.5" width="7" height="7" fill="#4fafff" rx="1"/>
<rect x="76.5" y="436.5" width="7" height="7" fill="#06f8ff" rx="1"/>
<rect x="546.5" y="196.5" width="7" height="7" fill="#6e90ff" rx="1"/>
<rect x="1106.5" y="146.5" width="7" height="7" fill="#eb13ff" rx="1"/>
<rect x="1006.5" y="306.5" width="7" height="7" fill="#d42aff" rx="1"/>
<rect x="1056.5" y="136.5" width="7" height="7" fill="#df1fff" rx="1"/>
<rect x="236.5" y="226.5" width="7" height="7" fill="#2ad4ff" rx="1"/>
<rect x="1046.5" y="216.5" width="7" height="7" fill="#dd21ff" rx="1"/>
<rect x="516.5" y="136.5" width="7" height="7" fill="#6896ff" rx="1"/>
<rect x="656.5" y="296.5" width="7" height="7" fill="#8777ff" rx="1"/>
<rect x="416.5" y="76.5" width="7" height="7" fill="#52acff" rx="1"/>
<rect x="636.5" y="256.5" width="7" height="7" fill="#827cff" rx="1"/>
<rect x="796.5" y="446.5" width="7" height="7" fill="#a658ff" rx="1"/>
<rect x="586.5" y="246.5" width="7" height="7" fill="#7787ff" rx="1"/>
<rect x="136.5" y="436.5" width="7" height="7" fill="#13ebff" rx="1"/>
<rect x="696.5" y="386.5" width="7" height="7" fill="#906eff" rx="1"/>
<rect x="116.5" y="476.5" width="7" height="7" fill="#0fefff" rx="1"/>
<rect x="726.5" y="396.5" width="7" height="7" fill="#9668ff" rx="1"/>
<rect x="276.5" y="196.5" width="7" height="7" fill="#33ccff" rx="1"/>
<rect x="1096.5" y="176.5" width="7" height="7" fill="#e816ff" rx="1"/>
<rect x="156.5" y="396.5" width="7" height="7" fill="#18e6ff" rx="1"/>
<rect x="606.5" y="196.5" width="7" height="7" fill="#7c82ff" rx="1"/>
<rect x="476.5" y="86.5" width="7" height="7" fill="#5f9fff" rx="1"/>
<rect x="986.5" y="346.5" width="7" height="7" fill="#d02eff" rx="1"/>
<rect x="166.5" y="436.5" width="7" height="7" fill="#1ae4ff" rx="1"/>
<rect x="216.5" y="266.5" width="7" height="7" fill="#25d9ff" rx="1"/>
<rect x="196.5" y="306.5" width="7" height="7" fill="#21ddff" rx="1"/>
<rect x="596.5" y="276.5" width="7" height="7" fill="#7985ff" rx="1"/>
<rect x="686.5" y="426.5" width="7" height="7" fill="#8d71ff" rx="1"/>
<rect x="946.5" y="376.5" width="7" height="7" fill="#c737ff" rx="1"/>
<rect x="606.5" y="326.5" width="7" height="7" fill="#7c82ff" rx="1"/>
<rect x="1026.5" y="256.5" width="7" height="7" fill="#d925ff" rx="1"/>
<rect x="926.5" y="416.5" width="7" height="7" fill="#c33bff" rx="1"/>
<rect x="1056.5" y="126.5" width="7" height="7" fill="#df1fff" rx="1"/>
<rect x="766.5" y="436.5" width="7" height="7" fill="#9f5fff" rx="1"/>
<rect x="236.5" y="216.5" width="7" height="7" fill="#2ad4ff" rx="1"/>
<rect x="1016.5" y="346.5" width="7" height="7" fill="#d727ff" rx="1"/>
<rect x="216.5" y="396.5" width="7" height="7" fill="#25d9ff" rx="1"/>
<rect x="346.5" y="106.5" width="7" height="7" fill="#42bcff" rx="1"/>
<rect x="326.5" y="146.5" width="7" height="7" fill="#3ec0ff" rx="1"/>
<rect x="866.5" y="496.5" width="7" height="7" fill="#b549ff" rx="1"/>
<rect x="146.5" y="426.5" width="7" height="7" fill="#16e8ff" rx="1"/>
<rect x="256.5" y="316.5" width="7" height="7" fill="#2ed0ff" rx="1"/>
<rect x="516.5" y="126.5" width="7" height="7" fill="#6896ff" rx="1"/>
<rect x="236.5" y="346.5" width="7" height="7" fill="#2ad4ff" rx="1"/>
<rect x="446.5" y="76.5" width="7" height="7" fill="#58a6ff" rx="1"/>
<rect x="1116.5" y="136.5" width="7" height="7" fill="#ed11ff" rx="1"/>
<rect x="136.5" y="426.5" width="7" height="7" fill="#13ebff" rx="1"/>
<rect x="806.5" y="486.5" width="7" height="7" fill="#a856ff" rx="1"/>
<rect x="376.5" y="106.5" width="7" height="7" fill="#49b5ff" rx="1"/>
<rect x="676.5" y="376.5" width="7" height="7" fill="#8b73ff" rx="1"/>
<rect x="96.5" y="466.5" width="7" height="7" fill="#0bf3ff" rx="1"/>
<rect x="1186.5" y="96.5" width="7" height="7" fill="#fc02ff" rx="1"/>
<rect x="606.5" y="186.5" width="7" height="7" fill="#7c82ff" rx="1"/>
<rect x="826.5" y="436.5" width="7" height="7" fill="#ac52ff" rx="1"/>
<rect x="1036.5" y="166.5" width="7" height="7" fill="#db23ff" rx="1"/>
<rect x="316.5" y="96.5" width="7" height="7" fill="#3bc3ff" rx="1"/>
<rect x="166.5" y="426.5" width="7" height="7" fill="#1ae4ff" rx="1"/>
<rect x="216.5" y="256.5" width="7" height="7" fill="#25d9ff" rx="1"/>
<rect x="836.5" y="486.5" width="7" height="7" fill="#af4fff" rx="1"/>
<rect x="116.5" y="416.5" width="7" height="7" fill="#0fefff" rx="1"/>
<rect x="196.5" y="296.5" width="7" height="7" fill="#21ddff" rx="1"/>
<rect x="566.5" y="216.5" width="7" height="7" fill="#738bff" rx="1"/>
<rect x="596.5" y="266.5" width="7" height="7" fill="#7985ff" rx="1"/>
<rect x="736.5" y="426.5" width="7" height="7" fill="#9966ff" rx="1"/>
<rect x="996.5" y="376.5" width="7" height="7" fill="#d22cff" rx="1"/>
<rect x="546.5" y="176.5" width="7" height="7" fill="#6e90ff" rx="1"/>
<rect x="606.5" y="316.5" width="7" height="7" fill="#7c82ff" rx="1"/>
<rect x="636.5" y="326.5" width="7" height="7" fill="#827cff" rx="1"/>
<rect x="766.5" y="426.5" width="7" height="7" fill="#9f5fff" rx="1"/>
<rect x="1036.5" y="296.5" width="7" height="7" fill="#db23ff" rx="1"/>
<rect x="236.5" y="206.5" width="7" height="7" fill="#2ad4ff" rx="1"/>
<rect x="746.5" y="466.5" width="7" height="7" fill="#9b63ff" rx="1"/>
<rect x="196.5" y="426.5" width="7" height="7" fill="#21ddff" rx="1"/>
<rect x="146.5" y="416.5" width="7" height="7" fill="#16e8ff" rx="1"/>
<rect x="356.5" y="146.5" width="7" height="7" fill="#44baff" rx="1"/>
<rect x="256.5" y="306.5" width="7" height="7" fill="#2ed0ff" rx="1"/>
<rect x="1046.5" y="196.5" width="7" height="7" fill="#dd21ff" rx="1"/>
<rect x="1176.5" y="46.5" width="7" height="7" fill="#fa04ff" rx="1"/>
<rect x="156.5" y="466.5" width="7" height="7" fill="#18e6ff" rx="1"/>
<rect x="656.5" y="276.5" width="7" height="7" fill="#8777ff" rx="1"/>
<rect x="546.5" y="126.5" width="7" height="7" fill="#6e90ff" rx="1"/>
<rect x="1106.5" y="76.5" width="7" height="7" fill="#eb13ff" rx="1"/>
<rect x="336.5" y="176.5" width="7" height="7" fill="#40beff" rx="1"/>
<rect x="136.5" y="416.5" width="7" height="7" fill="#13ebff" rx="1"/>
<rect x="806.5" y="476.5" width="7" height="7" fill="#a856ff" rx="1"/>
<rect x="276.5" y="176.5" width="7" height="7" fill="#33ccff" rx="1"/>
<rect x="1096.5" y="156.5" width="7" height="7" fill="#e816ff" rx="1"/>
<rect x="76.5" y="496.5" width="7" height="7" fill="#06f8ff" rx="1"/>
<rect x="1186.5" y="86.5" width="7" height="7" fill="#fc02ff" rx="1"/>
<rect x="896.5" y="396.5" width="7" height="7" fill="#bc42ff" rx="1"/>
<rect x="186.5" y="376.5" width="7" height="7" fill="#1fdfff" rx="1"/>
<rect x="856.5" y="436.5" width="7" height="7" fill="#b34bff" rx="1"/>
<rect x="426.5" y="56.5" width="7" height="7" fill="#54aaff" rx="1"/>
<rect x="836.5" y="476.5" width="7" height="7" fill="#af4fff" rx="1"/>
<rect x="226.5" y="296.5" width="7" height="7" fill="#27d7ff" rx="1"/>
<rect x="566.5" y="206.5" width="7" height="7" fill="#738bff" rx="1"/>
<rect x="306.5" y="176.5" width="7" height="7" fill="#39c5ff" rx="1"/>
<rect x="1046.5" y="276.5" width="7" height="7" fill="#dd21ff" rx="1"/>
<rect x="626.5" y="266.5" width="7" height="7" fill="#807eff" rx="1"/>
<rect x="936.5" y="446.5" width="7" height="7" fill="#c539ff" rx="1"/>
<rect x="216.5" y="376.5" width="7" height="7" fill="#25d9ff" rx="1"/>
<rect x="1066.5" y="156.5" width="7" height="7" fill="#e21cff" rx="1"/>
<rect x="266.5" y="206.5" width="7" height="7" fill="#30ceff" rx="1"/>
<rect x="346.5" y="86.5" width="7" height="7" fill="#42bcff" rx="1"/>
<rect x="966.5" y="316.5" width="7" height="7" fill="#cc33ff" rx="1"/>
<rect x="166.5" y="366.5" width="7" height="7" fill="#1ae4ff" rx="1"/>
<rect x="246.5" y="246.5" width="7" height="7" fill="#2cd2ff" rx="1"/>
<rect x="306.5" y="126.5" width="7" height="7" fill="#39c5ff" rx="1"/>
<rect x="516.5" y="106.5" width="7" height="7" fill="#6896ff" rx="1"/>
<rect x="996.5" y="316.5" width="7" height="7" fill="#d22cff" rx="1"/>
<rect x="1076.5" y="196.5" width="7" height="7" fill="#e41aff" rx="1"/>
<rect x="956.5" y="396.5" width="7" height="7" fill="#c935ff" rx="1"/>
<rect x="1006.5" y="226.5" width="7" height="7" fill="#d42aff" rx="1"/>
<rect x="446.5" y="56.5" width="7" height="7" fill="#58a6ff" rx="1"/>
<rect x="396.5" y="46.5" width="7" height="7" fill="#4db1ff" rx="1"/>
<rect x="196.5" y="366.5" width="7" height="7" fill="#21ddff" rx="1"/>
<rect x="616.5" y="296.5" width="7" height="7" fill="#7e80ff" rx="1"/>
<rect x="1096.5" y="146.5" width="7" height="7" fill="#e816ff" rx="1"/>
<rect x="96.5" y="446.5" width="7" height="7" fill="#0bf3ff" rx="1"/>
<rect x="206.5" y="416.5" width="7" height="7" fill="#23dbff" rx="1"/>
<rect x="656.5" y="396.5" width="7" height="7" fill="#8777ff" rx="1"/>
<rect x="1046.5" y="136.5" width="7" height="7" fill="#dd21ff" rx="1"/>
<rect x="386.5" y="126.5" width="7" height="7" fill="#4bb3ff" rx="1"/>
<rect x="586.5" y="166.5" width="7" height="7" fill="#7787ff" rx="1"/>
<rect x="116.5" y="396.5" width="7" height="7" fill="#0fefff" rx="1"/>
<rect x="256.5" y="156.5" width="7" height="7" fill="#2ed0ff" rx="1"/>
<rect x="576.5" y="246.5" width="7" height="7" fill="#7589ff" rx="1"/>
<rect x="496.5" y="146.5" width="7" height="7" fill="#639bff" rx="1"/>
<rect x="1196.5" y="76.5" width="7" height="7" fill="#ff00ff" rx="1"/>
<rect x="266.5" y="196.5" width="7" height="7" fill="#30ceff" rx="1"/>
<rect x="886.5" y="426.5" width="7" height="7" fill="#ba44ff" rx="1"/>
<rect x="726.5" y="446.5" width="7" height="7" fill="#9668ff" rx="1"/>
<rect x="866.5" y="466.5" width="7" height="7" fill="#b549ff" rx="1"/>
<rect x="276.5" y="246.5" width="7" height="7" fill="#33ccff" rx="1"/>
<rect x="356.5" y="126.5" width="7" height="7" fill="#44baff" rx="1"/>
<rect x="596.5" y="196.5" width="7" height="7" fill="#7985ff" rx="1"/>
<rect x="516.5" y="96.5" width="7" height="7" fill="#6896ff" rx="1"/>
<rect x="1076.5" y="186.5" width="7" height="7" fill="#e41aff" rx="1"/>
<rect x="896.5" y="466.5" width="7" height="7" fill="#bc42ff" rx="1"/>
<rect x="466.5" y="86.5" width="7" height="7" fill="#5da1ff" rx="1"/>
<rect x="606.5" y="246.5" width="7" height="7" fill="#7c82ff" rx="1"/>
<rect x="1026.5" y="176.5" width="7" height="7" fill="#d925ff" rx="1"/>
<rect x="526.5" y="146.5" width="7" height="7" fill="#6a94ff" rx="1"/>
<rect x="986.5" y="396.5" width="7" height="7" fill="#d02eff" rx="1"/>
<rect x="1116.5" y="106.5" width="7" height="7" fill="#ed11ff" rx="1"/>
<rect x="746.5" y="396.5" width="7" height="7" fill="#9b63ff" rx="1"/>
<rect x="936.5" y="386.5" width="7" height="7" fill="#c539ff" rx="1"/>
<rect x="1016.5" y="266.5" width="7" height="7" fill="#d727ff" rx="1"/>
<rect x="916.5" y="426.5" width="7" height="7" fill="#c03eff" rx="1"/>
<rect x="1126.5" y="146.5" width="7" height="7" fill="#ef0fff" rx="1"/>
<rect x="1026.5" y="306.5" width="7" height="7" fill="#d925ff" rx="1"/>
<rect x="1006.5" y="346.5" width="7" height="7" fill="#d42aff" rx="1"/>
<rect x="1056.5" y="176.5" width="7" height="7" fill="#df1fff" rx="1"/>
<rect x="586.5" y="156.5" width="7" height="7" fill="#7787ff" rx="1"/>
<rect x="246.5" y="316.5" width="7" height="7" fill="#2cd2ff" rx="1"/>
<rect x="456.5" y="46.5" width="7" height="7" fill="#5aa4ff" rx="1"/>
<rect x="1146.5" y="96.5" width="7" height="7" fill="#f30bff" rx="1"/>
<rect x="706.5" y="346.5" width="7" height="7" fill="#926cff" rx="1"/>
<rect x="1046.5" y="256.5" width="7" height="7" fill="#dd21ff" rx="1"/>
<rect x="256.5" y="146.5" width="7" height="7" fill="#2ed0ff" rx="1"/>
<rect x="846.5" y="496.5" width="7" height="7" fill="#b14dff" rx="1"/>
<rect x="796.5" y="486.5" width="7" height="7" fill="#a658ff" rx="1"/>
<rect x="86.5" y="466.5" width="7" height="7" fill="#08f6ff" rx="1"/>
<rect x="166.5" y="346.5" width="7" height="7" fill="#1ae4ff" rx="1"/>
<rect x="256.5" y="276.5" width="7" height="7" fill="#2ed0ff" rx="1"/>
<rect x="596.5" y="186.5" width="7" height="7" fill="#7985ff" rx="1"/>
<rect x="546.5" y="96.5" width="7" height="7" fill="#6e90ff" rx="1"/>
<rect x="1136.5" y="136.5" width="7" height="7" fill="#f10dff" rx="1"/>
<rect x="496.5" y="86.5" width="7" height="7" fill="#639bff" rx="1"/>
<rect x="476.5" y="126.5" width="7" height="7" fill="#5f9fff" rx="1"/>
<rect x="1036.5" y="216.5" width="7" height="7" fill="#db23ff" rx="1"/>
<rect x="936.5" y="376.5" width="7" height="7" fill="#c539ff" rx="1"/>
<rect x="696.5" y="376.5" width="7" height="7" fill="#906eff" rx="1"/>
<rect x="916.5" y="416.5" width="7" height="7" fill="#c03eff" rx="1"/>
<rect x="196.5" y="346.5" width="7" height="7" fill="#21ddff" rx="1"/>
<rect x="406.5" y="76.5" width="7" height="7" fill="#4fafff" rx="1"/>
<rect x="256.5" y="226.5" width="7" height="7" fill="#2ed0ff" rx="1"/>
<rect x="546.5" y="226.5" width="7" height="7" fill="#6e90ff" rx="1"/>
<rect x="946.5" y="416.5" width="7" height="7" fill="#c737ff" rx="1"/>
<rect x="1026.5" y="296.5" width="7" height="7" fill="#d925ff" rx="1"/>
<rect x="1076.5" y="126.5" width="7" height="7" fill="#e41aff" rx="1"/>
<rect x="636.5" y="376.5" width="7" height="7" fill="#827cff" rx="1"/>
<rect x="286.5" y="266.5" width="7" height="7" fill="#35c9ff" rx="1"/>
<rect x="336.5" y="96.5" width="7" height="7" fill="#40beff" rx="1"/>
<rect x="526.5" y="86.5" width="7" height="7" fill="#6a94ff" rx="1"/>
<rect x="346.5" y="146.5" width="7" height="7" fill="#42bcff" rx="1"/>
<rect x="246.5" y="306.5" width="7" height="7" fill="#2cd2ff" rx="1"/>
<rect x="146.5" y="466.5" width="7" height="7" fill="#16e8ff" rx="1"/>
<rect x="566.5" y="176.5" width="7" height="7" fill="#738bff" rx="1"/>
<rect x="816.5" y="446.5" width="7" height="7" fill="#aa54ff" rx="1"/>
<rect x="1176.5" y="96.5" width="7" height="7" fill="#fa04ff" rx="1"/>
<rect x="656.5" y="326.5" width="7" height="7" fill="#8777ff" rx="1"/>
<rect x="1106.5" y="126.5" width="7" height="7" fill="#eb13ff" rx="1"/>
<rect x="1196.5" y="56.5" width="7" height="7" fill="#ff00ff" rx="1"/>
<rect x="986.5" y="246.5" width="7" height="7" fill="#d02eff" rx="1"/>
<rect x="266.5" y="176.5" width="7" height="7" fill="#30ceff" rx="1"/>
<rect x="666.5" y="366.5" width="7" height="7" fill="#8975ff" rx="1"/>
<rect x="276.5" y="226.5" width="7" height="7" fill="#33ccff" rx="1"/>
<rect x="676.5" y="416.5" width="7" height="7" fill="#8b73ff" rx="1"/>
<rect x="176.5" y="386.5" width="7" height="7" fill="#1ce2ff" rx="1"/>
<rect x="566.5" y="126.5" width="7" height="7" fill="#738bff" rx="1"/>
<rect x="106.5" y="416.5" width="7" height="7" fill="#0df1ff" rx="1"/>
<rect x="896.5" y="446.5" width="7" height="7" fill="#bc42ff" rx="1"/>
<rect x="606.5" y="226.5" width="7" height="7" fill="#7c82ff" rx="1"/>
<rect x="1026.5" y="156.5" width="7" height="7" fill="#d925ff" rx="1"/>
<rect x="826.5" y="476.5" width="7" height="7" fill="#ac52ff" rx="1"/>
<rect x="296.5" y="176.5" width="7" height="7" fill="#37c7ff" rx="1"/>
<rect x="756.5" y="426.5" width="7" height="7" fill="#9d61ff" rx="1"/>
<rect x="226.5" y="346.5" width="7" height="7" fill="#27d7ff" rx="1"/>
<rect x="306.5" y="226.5" width="7" height="7" fill="#39c5ff" rx="1"/>
<rect x="206.5" y="386.5" width="7" height="7" fill="#23dbff" rx="1"/>
<rect x="976.5" y="276.5" width="7" height="7" fill="#ce30ff" rx="1"/>
<rect x="766.5" y="466.5" width="7" height="7" fill="#9f5fff" rx="1"/>
<rect x="956.5" y="316.5" width="7" height="7" fill="#c935ff" rx="1"/>
<rect x="236.5" y="246.5" width="7" height="7" fill="#2ad4ff" rx="1"/>
<rect x="1016.5" y="196.5" width="7" height="7" fill="#d727ff" rx="1"/>
<rect x="326.5" y="176.5" width="7" height="7" fill="#3ec0ff" rx="1"/>
<rect x="816.5" y="436.5" width="7" height="7" fill="#aa54ff" rx="1"/>
<rect x="1126.5" y="76.5" width="7" height="7" fill="#ef0fff" rx="1"/>
<rect x="546.5" y="166.5" width="7" height="7" fill="#6e90ff" rx="1"/>
<rect x="1196.5" y="46.5" width="7" height="7" fill="#ff00ff" rx="1"/>
<rect x="396.5" y="96.5" width="7" height="7" fill="#4db1ff" rx="1"/>
<rect x="1016.5" y="326.5" width="7" height="7" fill="#d727ff" rx="1"/>
<rect x="666.5" y="356.5" width="7" height="7" fill="#8975ff" rx="1"/>
<rect x="466.5" y="56.5" width="7" height="7" fill="#5da1ff" rx="1"/>
<rect x="476.5" y="106.5" width="7" height="7" fill="#5f9fff" rx="1"/>
<rect x="586.5" y="216.5" width="7" height="7" fill="#7787ff" rx="1"/>
<rect x="1036.5" y="196.5" width="7" height="7" fill="#db23ff" rx="1"/>
<rect x="426.5" y="96.5" width="7" height="7" fill="#54aaff" rx="1"/>
<rect x="936.5" y="356.5" width="7" height="7" fill="#c539ff" rx="1"/>
<rect x="616.5" y="256.5" width="7" height="7" fill="#7e80ff" rx="1"/>
<rect x="726.5" y="366.5" width="7" height="7" fill="#9668ff" rx="1"/>
<rect x="156.5" y="366.5" width="7" height="7" fill="#18e6ff" rx="1"/>
<rect x="946.5" y="396.5" width="7" height="7" fill="#c737ff" rx="1"/>
<rect x="1076.5" y="106.5" width="7" height="7" fill="#e41aff" rx="1"/>
</g></svg>